# AST/ASF file generated using VICON BodyLanguage
# -----------------------------------------------
:version 1.10
:name VICON
:units
  mass 1.0
  length 0.45
  angle deg
:documentation
   .ast/.asf automatically generated from VICON data using
   VICON BodyBuilder and BodyLanguage model FoxedUp or BRILLIANT.MOD
:root
   order TX TY TZ RX RY RZ
   axis XYZ
   position 0 0 0  
   orientation 0 0 0 
:bonedata
  begin
     id 1 
     name lhipjoint
     direction 0.547975 -0.797114 0.253638 
     length 2.36201 
     axis 0 0 0  XYZ
  end
  begin
     id 2 
     name lfemur
     direction 0.34202 -0.939693 0  
     length 7.69075  
     axis 0 0 20  XYZ
    dof rx ry rz
    limits (-160.0 20.0)
           (-70.0 70.0)
           (-60.0 70.0)
  end
  begin
     id 3 
     name ltibia
     direction 0.34202 -0.939693 0   
     length 7.91399   
     axis 0 0 20   XYZ
    dof rx
    limits (-10.0 170.0)
  end
  begin
     id 4 
     name lfoot
     direction 0.0705293 -0.193778 0.978507   
     length 2.13618   
     axis -90 7.62852e-016 20   XYZ
    dof rx rz
    limits (-45.0 90.0)
           (-70.0 20.0)
  end
  begin
     id 5 
     name ltoes
     direction 1.53592e-011 -4.21925e-011 1   
     length 1.07518   
     axis -90 7.62852e-016 20   XYZ
    dof rx
    limits (-90.0 20.0)
  end
  begin
     id 6 
     name rhipjoint
     direction -0.57 -0.782963 0.249136   
     length 2.4047  
     axis 0 0 0  XYZ 
  end
  begin
     id 7 
     name rfemur
     direction -0.34202 -0.939693 0   
     length 7.51486   
     axis 0 0 -20   XYZ
    dof rx ry rz
    limits (-160.0 20.0)
           (-70.0 70.0)
           (-70.0 60.0)
  end
  begin
     id 8 
     name rtibia
     direction -0.34202 -0.939693 0   
     length 8.08317   
     axis 0 0 -20   XYZ
    dof rx
    limits (-10.0 170.0)
 end
 begin
     id 9 
     name rfoot
     direction -0.104954 -0.281256 0.953876   
     length 2.30343  
     axis -90 -7.62852e-016 -20   XYZ
    dof rx rz
    limits (-45.0 90.0)
           (-20.0 70.0)
  end
  begin
     id 10 
     name rtoes
     direction -1.53556e-011 -4.21922e-011 1   
     length 1.14803   
     axis -90 -7.62852e-016 -20   XYZ
    dof rx
    limits (-90.0 20.0)
  end
  begin
     id 11 
     name lowerback
     direction -0.0152855 0.99353 -0.11254   
     length 2.05311   
     axis 0 0 0   XYZ
    dof rx ry rz
    limits (-20.0 45.0)
           (-30.0 30.0)
           (-30.0 30.0)
  end
  begin
     id 12 
     name upperback
     direction -0.00157509 0.999443 -0.033332   
     length 2.06353   
     axis 0 0 0   XYZ
    dof rx ry rz
    limits (-20.0 45.0)
           (-30.0 30.0)
           (-30.0 30.0)
  end
  begin
     id 13 
     name thorax
     direction 0.00577788 0.999804 0.0189484   
     length 2.08472   
     axis 0 0 0   XYZ
    dof rx ry rz
    limits (-20.0 45.0)
           (-30.0 30.0)
           (-30.0 30.0)
  end
  begin
     id 14 
     name lowerneck
     direction -1.09301e-005 0.994719 0.10264   
     length 1.76249   
     axis 0 0 0   XYZ
    dof rx ry rz
    limits (-20.0 45.0)
           (-30.0 30.0)
           (-30.0 30.0)
  end
  begin
     id 15 
     name upperneck
     direction 0.0495018 0.988526 -0.142706   
     length 1.77897   
     axis 0 0 0   XYZ
    dof rx ry rz
    limits (-20.0 45.0)
           (-30.0 30.0)
           (-30.0 30.0)
  end
  begin
     id 16
     name head
     direction 0.0142736 0.998114 -0.0597101  
     length 1.78934  
     axis 0 0 0   XYZ
    dof rx ry rz
    limits (-20.0 45.0)
           (-30.0 30.0)
           (-30.0 30.0)
  end
  begin
     id 17 
     name lclavicle
     direction 0.918111 0.396107 -0.0130883  
     length 3.37276  
     axis 0 0 0   XYZ
    dof ry rz
    limits (-20.0 10.0)
           (0.0 20.0)
  end
  begin
     id 18 
     name lhumerus
     direction 1 -4.48975e-011 -3.26108e-027   
     length 5.34298   
     axis 180 -30 -90   XYZ
    dof rx ry rz
    limits (-60.0 90.0)
           (-90.0 90.0)
           (-90.0 90.0)
  end
  begin
     id 19
     name lradius
     direction 1 -4.48964e-011 -8.84413e-028   
     length 3.67262   
     axis 180 -30 -90   XYZ
    dof rx
    limits (-10.0 170.0)
  end
  begin
     id 20
     name lwrist
     direction 1 -4.48991e-011 -1.24264e-027   
     length 1.83631   
     axis -2.17013e-015 90 90   XYZ
    dof ry
    limits (-180.0 0.0)
 end
  begin
     id 21 
     name lhand
     direction 1 -4.48855e-011 -2.48528e-027   
     length 0.599298   
     axis 1.58582e-015 90 90   XYZ
    dof rx rz
    limits (-90.0 90.0)
           (-45.0 45.0)
  end
  begin
     id 22 
     name lfingers
     direction 1 -4.48811e-011 -4.97056e-027   
     length 0.48317   
     axis 3.17164e-015 90 90   XYZ
    dof rx
    limits (0.0 90.0)
  end
  begin
     id 23
     name lthumb
     direction 0.707107 -6.34882e-011 0.707107   
     length 0.693738   
     axis -90 45 2.85299e-015   XYZ
    dof rx rz
    limits (-45.0 45.0)
           (-45.0 45.0)
  end
  begin
     id 24 
     name rclavicle
     direction -0.920511 0.384752 -0.0680135   
     length 3.43787  
     axis 0 0 0   XYZ 
    dof ry rz
    limits (-10.0 20.0)
           (-20.0 0.0)
  end
  begin
     id 25 
     name rhumerus
     direction -0.999976 -0.00330524 0.00603274  
     length 5.5498   
     axis 180 30 90   XYZ
    dof rx ry rz
    limits (-90.0 60.0)
           (-90.0 90.0)
           (-90.0 90.0)
  end
  begin
     id 26 
     name rradius
     direction -1 -4.48967e-011 8.62438e-027   
     length 3.69401   
     axis 180 30 90   XYZ
    dof rx
    limits (-10.0 170.0)
  end
  begin
     id 27 
     name rwrist
     direction -1 -4.4897e-011 9.54866e-027   
     length 1.84701   
     axis -7.69462e-015 -90 -90   XYZ
    dof ry
    limits (-180.0 0.0)
  end
  begin
     id 28
     name rhand
     direction -1 -4.48982e-011 1.90973e-026   
     length 0.638113   
     axis -1.21857e-014 -90 -90   XYZ
    dof rx rz
    limits (-90.0 90.0)
           (-45.0 45.0)
  end
  begin
     id 29
     name rfingers
     direction -1 -4.48936e-011 3.81946e-026   
     length 0.514463   
     axis -2.43714e-014 -90 -90   XYZ
    dof rx
    limits (0.0 90.0)
  end
  begin
     id 30
     name rthumb
     direction -0.707107 -6.34942e-011 0.707107   
     length 0.738669   
     axis -90 -45 -2.85299e-015   XYZ
    dof rx rz
    limits (-45.0 45.0)
           (-45.0 45.0)
  end
:hierarchy
  begin
    root lhipjoint rhipjoint lowerback
    lhipjoint lfemur
    lfemur ltibia
    ltibia lfoot
    lfoot ltoes
    rhipjoint rfemur
    rfemur rtibia
    rtibia rfoot
    rfoot rtoes
    lowerback upperback
    upperback thorax
    thorax lowerneck lclavicle rclavicle
    lowerneck upperneck
    upperneck head
    lclavicle lhumerus
    lhumerus lradius
    lradius lwrist
    lwrist lhand lthumb
    lhand lfingers
    rclavicle rhumerus
    rhumerus rradius
    rradius rwrist
    rwrist rhand rthumb
    rhand rfingers
  end

#!OML:ASF F:\twosubjects\two\Thursday\Session 1\Rory.ASF
:FULLY-SPECIFIED
:DEGREES
1
root 7.42417 10.4549 11.3046 161.833 -1.93299 173.229
lowerback 42.7462 7.00138 -0.988244
upperback 18.1664 0.120312 -1.7606
thorax 0.0528384 -3.1957 -1.4073
lowerneck -14.5523 -3.81223 -4.63855
upperneck -8.17359 -5.38407 8.47382
head 0.251385 -3.01647 3.3154
rclavicle 9.93923e-016 -5.12864e-014
rhumerus 24.8199 29.1143 -66.6529
rradius 76.8338
rwrist -1.62052
rhand -40.1725 38.7215
rfingers 7.12502
rthumb -13.1341 9.15515
lclavicle 9.93923e-016 -5.12864e-014
lhumerus 34.707 -36.6734 52.4596
lradius 70.8872
lwrist -26.6076
lhand -31.5548 18.7119
lfingers 7.12502
lthumb -4.81882 48.6371
rfemur -73.7464 -13.6137 -1.15544
rtibia 90.2759
rfoot 9.53747 -4.91183
rtoes -6.12449
lfemur -68.3337 19.6008 -11.9749
ltibia 87.0293
lfoot 6.95965 -10.4729
ltoes 0.801281
2
root 7.42335 10.4567 11.3058 161.805 -1.97793 173.131
lowerback 42.8448 7.03347 -1.09233
upperback 18.1487 0.107469 -1.7228
thorax 0.0043977 -3.21543 -1.30809
lowerneck -14.5876 -3.80894 -4.69869
upperneck -8.19493 -5.37357 8.43431
head 0.249705 -3.01141 3.31343
rclavicle -3.18055e-014 -1.09332e-015
rhumerus 24.8703 29.1718 -66.4796
rradius 76.8304
rwrist -1.62477
rhand -40.3741 38.7328
rfingers 7.12502
rthumb -13.3284 9.17909
lclavicle -3.18055e-014 -1.09332e-015
lhumerus 34.4762 -36.6063 52.6285
lradius 71.0641
lwrist -26.8238
lhand -31.1279 18.7651
lfingers 7.12502
lthumb -4.40668 48.6992
rfemur -73.6897 -13.6222 -1.28356
rtibia 90.2548
rfoot 10.4769 -2.45264
rtoes -18.9267
lfemur -68.287 19.5658 -12.117
ltibia 87.0116
lfoot 6.90372 -10.5488
ltoes -0.219036
3
root 7.42322 10.4555 11.3062 161.828 -1.93056 173.155
lowerback 42.8788 7.06418 -1.10718
upperback 18.1115 0.154217 -1.67072
thorax -0.0456447 -3.19163 -1.25902
lowerneck -14.6721 -3.8099 -4.78259
upperneck -8.11031 -5.3589 8.44476
head 0.293976 -2.99639 3.33132
rclavicle 2.6339e-014 2.6339e-014
rhumerus 24.8831 29.1737 -66.3866
rradius 76.7527
rwrist -1.71846
rhand -40.525 39.0703
rfingers 7.12502
rthumb -13.4738 9.52612
lclavicle 2.6339e-014 2.6339e-014
lhumerus 34.3835 -36.6146 52.7407
lradius 71.2263
lwrist -26.6779
lhand -30.8305 18.8499
lfingers 7.12502
lthumb -4.11942 48.7899
rfemur -73.7394 -13.5611 -1.24765
rtibia 90.254
rfoot 10.1065 -3.69442
rtoes -13.356
lfemur -68.3525 19.6552 -12.1362
ltibia 87.0492
lfoot 6.72572 -10.7298
ltoes -1.71361
4
root 7.42302 10.4561 11.3092 161.889 -1.91496 173.227
lowerback 42.7352 7.00801 -1.01228
upperback 18.1464 0.135665 -1.70051
thorax 0.0331771 -3.1886 -1.3357
lowerneck -14.6693 -3.79448 -4.85451
upperneck -8.08294 -5.32556 8.60281
head 0.308982 -2.97547 3.40176
rclavicle -9.54166e-015 2.87244e-014
rhumerus 24.9136 29.2046 -66.4873
rradius 76.6713
rwrist -1.77806
rhand -40.4985 39.4861
rfingers 7.12502
rthumb -13.4483 9.94028
lclavicle -9.54166e-015 2.87244e-014
lhumerus 34.3981 -36.5861 52.749
lradius 71.2545
lwrist -26.7152
lhand -31.0616 19.0863
lfingers 7.12502
lthumb -4.34262 49.0218
rfemur -73.8284 -13.664 -1.11667
rtibia 90.2444
rfoot 10.5161 -2.4957
rtoes -18.8303
lfemur -68.4502 19.6525 -12.0689
ltibia 87.0892
lfoot 6.69236 -10.7619
ltoes 1.17152
5
root 7.42494 10.4589 11.3112 161.877 -1.91387 173.307
lowerback 42.7226 6.96944 -0.930136
upperback 18.174 0.110259 -1.6929
thorax 0.068949 -3.20013 -1.36229
lowerneck -14.8764 -3.8201 -4.9221
upperneck -7.86258 -5.34322 8.65422
head 0.422529 -2.96956 3.4254
rclavicle -1.78906e-015 -1.95803e-014
rhumerus 24.9599 29.381 -66.4636
rradius 76.6557
rwrist -1.17225
rhand -41.2344 38.3533
rfingers 7.12502
rthumb -14.1575 8.85572
lclavicle -1.78906e-015 -1.95803e-014
lhumerus 34.3151 -36.4974 52.8358
lradius 71.2559
lwrist -27.1401
lhand -31.0089 19.2186
lfingers 7.12502
lthumb -4.29173 49.1551
rfemur -73.8126 -13.7424 -0.984269
rtibia 90.2323
rfoot 9.87901 -4.27997
rtoes -9.09682
lfemur -68.4177 19.6312 -11.9688
ltibia 87.1046
lfoot 6.71173 -10.7164
ltoes -1.19389
